<svg width="160" height="34" viewBox="0 0 160 34" fill="none" xmlns="http://www.w3.org/2000/svg">
<path d="M6.22011 1.83316C6.22011 2.8528 5.37848 3.66632 4.32999 3.66632C3.2815 3.66632 2.43704 2.85005 2.43704 1.83316C2.43704 0.816264 3.27867 0 4.32999 0C5.38132 0 6.22011 0.813516 6.22011 1.83316ZM12.1483 1.83316C12.1483 2.8528 11.3067 3.66632 10.2554 3.66632C9.20407 3.66632 8.36244 2.85005 8.36244 1.83316C8.36244 0.816264 9.20407 0 10.2554 0C11.3067 0 12.1483 0.813516 12.1483 1.83316ZM18.0964 1.83316C18.0964 2.8528 17.2548 3.66632 16.2063 3.66632C15.1578 3.66632 14.3133 2.85005 14.3133 1.83316C14.3133 0.816264 15.155 0 16.2063 0C17.2576 0 18.0964 0.813516 18.0964 1.83316ZM24.0218 1.83316C24.0218 2.8528 23.1802 3.66632 22.1289 3.66632C21.0775 3.66632 20.2359 2.85005 20.2359 1.83316C20.2359 0.816264 21.0775 0 22.1289 0C23.1802 0 24.0218 0.813516 24.0218 1.83316ZM2.10265 6.34047H24.3165C25.518 6.34047 26.4617 7.25843 26.4617 8.41824V21.341C26.4617 28.3741 20.4484 34.0028 13.2195 34.0028C5.99058 34.0028 0 28.3741 0 21.341V8.41824C0 7.25568 0.946477 6.34047 2.10265 6.34047ZM47.6157 23.9135C47.321 23.6469 47.1737 23.7294 46.7316 24.0125C45.805 24.5814 44.7366 24.7655 43.7278 24.7655C41.2058 24.7655 39.1229 22.5448 39.1229 19.9146C39.1229 17.2845 41.0159 15.1242 43.538 15.1242C44.6941 15.1242 45.6604 15.3496 46.5871 15.9185C46.9866 16.1659 47.1737 16.2868 47.4684 16.0202L49.214 14.2668C49.5484 13.9424 49.401 13.6978 49.0666 13.3928C47.6186 11.9664 45.5783 11.5981 43.3509 11.5981C38.8311 11.5981 35.048 15.3496 35.048 20.0191C35.048 24.6885 39.0181 28.539 43.538 28.539C45.5783 28.539 47.6186 27.9701 49.3188 26.5629C49.6957 26.2386 49.7382 25.994 49.4435 25.7054L47.6157 23.9135ZM159.725 25.6642L158.189 24.1141C157.79 23.6854 157.6 23.7266 157.265 24.0125C156.489 24.6226 155.457 24.7655 154.383 24.7655C151.861 24.7655 149.971 22.7894 149.971 19.9146C149.971 17.0399 151.589 15.1242 154.111 15.1242C155.225 15.1242 156.191 15.3496 157.056 15.9597C157.495 16.2428 157.75 16.2841 158.189 15.8773L159.535 14.4701C159.935 14.0826 159.83 13.7968 159.493 13.4697C158.087 12.0626 156.237 11.5953 154.007 11.5953C149.487 11.5953 145.894 14.8796 145.894 20.0163C145.894 25.153 149.679 28.5363 154.196 28.5363C156.191 28.5363 157.98 28.1487 159.64 26.7031C160.082 26.2744 160.125 26.0297 159.725 25.6642ZM69.0928 25.5213C68.2739 25.5213 67.3076 25.4196 67.3076 25.4196V21.2421H69.7899C71.5752 21.2421 72.1646 22.3222 72.1646 23.504C72.1646 24.8095 71.4704 25.5213 69.0957 25.5213M67.3104 14.6955C67.3104 14.6955 68.0443 14.6158 68.5289 14.6158C70.7988 14.6158 71.5752 15.1242 71.5752 16.4929C71.5752 17.6115 71.1757 18.5487 69.7899 18.5487H67.3076V14.6955H67.3104ZM73.9527 19.9146C74.8766 19.365 75.3583 17.8973 75.3583 16.5314V16.0642C75.3583 12.5793 72.5019 11.5404 68.1917 11.5404C66.908 11.5404 65.3098 11.6008 64.6382 11.741C63.7115 11.8839 63.4168 12.211 63.4168 13.1894V26.9285C63.4168 27.9289 63.7115 28.2559 64.6382 28.3961C65.5195 28.5363 67.3076 28.5802 68.7981 28.5802C72.7286 28.5802 75.942 27.6403 75.942 23.6881V23.3611C75.942 21.8522 75.1656 20.489 73.9471 19.9174M101.31 19.1231V14.9841C101.5 14.8824 102.531 14.7999 102.721 14.7999C104.614 14.7999 105.682 15.4128 105.682 17.1031C105.682 19.5519 103.016 19.2633 101.31 19.1231ZM106.694 21.5664C108.394 20.8738 109.658 19.4474 109.658 16.9601C109.658 12.8623 106.609 11.5376 102.721 11.5376C101.208 11.5376 99.5246 11.6393 98.5385 11.8207C97.8669 11.9251 97.5722 12.2082 97.5722 12.9613V27.9261C97.5722 28.1487 97.7819 28.3933 97.9717 28.3933H100.936C101.208 28.3933 101.42 28.1487 101.42 27.9261V22.3195C101.42 22.3195 102.344 22.4211 102.911 22.3195L105.918 27.9261C106.022 28.1103 106.212 28.3933 106.609 28.3933H109.848C110.1 28.3933 110.395 28.2092 110.205 27.8217L106.697 21.5637L106.694 21.5664ZM141.541 24.9112H134.791V21.4647H140.322C140.512 21.4647 140.807 21.2421 140.807 20.9535V18.7328C140.807 18.5487 140.512 18.2876 140.322 18.2876H134.791V14.9841H141.053C141.348 14.9841 141.538 14.6982 141.538 14.5141V12.211C141.538 11.9664 141.345 11.741 141.053 11.741H131.387C131.115 11.741 130.903 11.9664 130.903 12.211V27.9289C130.903 28.1515 131.113 28.3961 131.387 28.3961H141.538C141.833 28.3961 142.023 28.1515 142.023 27.9289V25.4196C142.023 25.0953 141.833 24.9112 141.538 24.9112M125.669 11.741H113.92C113.625 11.741 113.54 11.9664 113.54 12.211V14.6185C113.54 14.7999 113.625 15.0665 113.92 15.0665H117.913V27.9316C117.913 28.1542 118.1 28.3988 118.332 28.3988H121.296C121.483 28.3988 121.781 28.1542 121.781 27.9316V15.0665H125.669C125.964 15.0665 126.154 14.7999 126.154 14.6185V12.211C126.154 11.9664 125.964 11.741 125.669 11.741ZM91.746 24.9112H84.9591V21.4647H90.5501C90.8221 21.4647 91.0347 21.2421 91.0347 20.9535V18.7328C91.0347 18.5487 90.825 18.2876 90.5501 18.2876H84.9591V14.9841H91.2217C91.5164 14.9841 91.746 14.6982 91.746 14.5141V12.211C91.746 11.9664 91.5164 11.741 91.2217 11.741H81.6152C81.2809 11.741 81.1732 11.9664 81.1732 12.211V27.9289C81.1732 28.1515 81.278 28.3961 81.6152 28.3961H91.746C92.0407 28.3961 92.2305 28.1515 92.2305 27.9289V25.4196C92.2305 25.0953 92.0407 24.9112 91.746 24.9112ZM57.1514 11.741H54.1447C53.9549 11.741 53.7678 11.9664 53.7678 12.211V27.9289C53.7678 28.1515 53.9549 28.3961 54.1447 28.3961H57.1514C57.4432 28.3961 57.6558 28.1515 57.6558 27.9289V12.211C57.6558 11.9664 57.4432 11.741 57.1514 11.741ZM3.72923 16.6743H22.877V9.78417H3.72923V16.6743ZM3.72923 21.3603C3.72923 22.2782 3.85675 23.034 4.08629 23.8063H22.5398C22.7268 23.0313 22.8741 22.2782 22.8741 21.3603V20.0163H3.72923V21.3603ZM13.2932 30.7982C16.6994 30.7982 19.5785 29.4542 21.2589 27.0082H5.35015C7.03057 29.4542 9.97202 30.7982 13.2932 30.7982Z" fill="#004769"/>
</svg>
